<?xml version="1.0" standalone="no"?>
<!DOCTYPE svg PUBLIC "-//W3C//DTD SVG 20010904//EN"
 "http://www.w3.org/TR/2001/REC-SVG-20010904/DTD/svg10.dtd">
<svg version="1.0" xmlns="http://www.w3.org/2000/svg"
 width="700.000000pt" height="700.000000pt" viewBox="0 0 700.000000 700.000000"
 preserveAspectRatio="xMidYMid meet">
<metadata>
Created by potrace 1.14, written by Peter Selinger 2001-2017
</metadata>
<g transform="translate(0.000000,700.000000) scale(0.100000,-0.100000)"
fill="#000000" stroke="none">
<path d="M3265 6878 c-49 -6 -218 -35 -260 -44 -5 -1 -30 -7 -55 -14 -479
-128 -899 -411 -1194 -805 -81 -108 -186 -273 -186 -293 0 -27 -34 -32 -236
-35 -205 -3 -210 -3 -265 -30 -98 -48 -157 -121 -183 -227 -17 -63 -14 -1198
2 -1255 18 -62 66 -130 119 -170 73 -53 134 -67 302 -69 l145 -1 7 -25 c3 -14
25 -63 47 -110 41 -87 41 -100 -2 -100 -11 0 -56 -18 -100 -40 -84 -41 -149
-95 -204 -166 -28 -36 -43 -45 -116 -68 -212 -66 -434 -207 -590 -375 -23 -25
-48 -52 -57 -61 -29 -30 -106 -144 -146 -215 -124 -222 -181 -444 -181 -701 1
-374 142 -720 402 -986 70 -72 70 -72 51 -163 -13 -63 -24 -601 -16 -792 l1
-23 2950 0 c2802 0 2950 1 2951 18 4 67 0 625 -5 688 -6 74 -8 92 -21 171 -5
28 1 38 61 100 197 203 320 439 380 728 20 97 26 374 11 470 -27 166 -95 366
-164 477 -13 21 -23 40 -23 44 0 5 -72 113 -95 141 -184 229 -421 396 -679
480 -76 24 -92 34 -119 68 -76 98 -175 167 -289 200 -59 17 -66 23 -47 42 5 5
28 52 49 104 l39 94 145 2 c97 1 163 6 199 17 95 28 175 105 213 206 15 40 17
107 17 645 0 330 -2 612 -6 628 -19 89 -94 179 -186 224 -55 27 -58 27 -266
28 l-210 0 -45 78 c-59 103 -58 102 -109 175 -112 164 -280 346 -435 470 -74
60 -249 182 -260 182 -3 0 -29 14 -57 31 -45 26 -101 52 -264 124 -98 43 -349
106 -515 130 -72 10 -440 13 -505 3z m-2171 -4313 c-1 -131 -1 -136 -26 -163
-84 -88 -105 -234 -52 -350 l24 -54 -75 -99 c-41 -55 -82 -113 -90 -129 -20
-39 -29 -38 -48 8 -84 194 -78 439 15 631 37 75 92 155 137 200 30 29 104 91
110 91 3 0 6 -61 5 -135z m4879 88 c105 -94 179 -205 220 -331 44 -132 51
-268 23 -402 -16 -77 -55 -180 -67 -180 -4 0 -19 21 -34 46 -15 26 -33 54 -40
63 -8 9 -36 45 -64 80 l-50 63 15 37 c63 144 47 273 -45 374 -24 26 -25 32
-25 162 -1 74 2 135 6 135 4 0 32 -21 61 -47z"/>
</g>
</svg>
